<?xml version="1.0" encoding="utf-8"?>
<!-- Generator: Adobe Illustrator 23.0.3, SVG Export Plug-In . SVG Version: 6.00 Build 0)  -->
<svg version="1.1" id="Ebene_1" xmlns="http://www.w3.org/2000/svg" xmlns:xlink="http://www.w3.org/1999/xlink" x="0px" y="0px"
	 viewBox="0 0 253.89 277.99" style="enable-background:new 0 0 253.89 277.99;" xml:space="preserve">
<style type="text/css">
	.st0{display:none;}
	.st1{display:inline;}
	.st2{fill:#3D4A99;}
	.st3{fill:#FDDC29;}
	.st4{fill:#FFFFFF;}
</style>
<g id="Blau" class="st0">
	<g class="st1">
		<g>
			<path class="st2" d="M235.07,72.5c1.24,0.48,2.47,0.96,3.67,1.48l0.05-0.03c-0.15-0.06-3.31-1.36-5.6-2.31
				C234.09,72.06,235.02,72.48,235.07,72.5L235.07,72.5z"/>
			<path class="st2" d="M238.73,73.98c0.02,0.01,0.03,0.01,0.05,0.02C238.77,73.99,238.75,73.99,238.73,73.98L238.73,73.98z"/>
			<path class="st2" d="M212.56,132.52v0.06c4.77,1.36,9.31,2.86,13.6,4.5l0.07-0.04c-4.31-1.64-8.86-3.15-13.65-4.51L212.56,132.52
				z"/>
		</g>
		<g>
			<path class="st2" d="M135.17,122.48C135.22,122.43,135.17,122.48,135.17,122.48c-2.73-0.05-5.48-0.08-8.23-0.08
				c-28.51,0-56.6,2.76-80.04,8.68h-0.01v28.27l0,0.65c0,6.18,0.88,14.14,4.04,22.74l0.01,0.02l0,0
				C57.29,200.67,74,214.52,74,214.52c58.19-28.13,107.66-87.19,107.66-87.19C166.11,124.24,150.37,122.74,135.17,122.48"/>
		</g>
		<path class="st2" d="M238.73,73.98L238.73,73.98c-1.2-0.52-17.34-7-22.52-8.58V39.64c-20.87-12.05-55.65-18.01-89.27-18.01
			c-33.6,0-68.39,5.96-89.26,18.01V65.4c-5.34,1.64-18.58,7.07-18.67,7.1l0,0c-1.26,0.49-2.51,0.97-3.72,1.5v6.15v68.33l22.54,14.7
			c0,0,1.39,16.86,6.79,28.43c0.98,2.1,2.09,4.22,3.33,6.33c1.86,3.17,4.04,6.34,6.56,9.48c13.45,16.76,32.91,33.32,72.43,48.94
			c12.35-4.88,22.74-9.85,31.61-14.9c0.89-0.5,1.76-1.01,2.61-1.51c17.97-10.62,29.39-21.53,38.21-32.53c0,0,0,0,0-0.01
			c0.56-0.69,1.09-1.39,1.61-2.09c0.13-0.18,0.26-0.35,0.39-0.53c0.51-0.69,1-1.38,1.48-2.06c0.01-0.01,0.01-0.02,0.02-0.03
			c0.49-0.71,0.95-1.41,1.41-2.12c0.11-0.17,0.21-0.33,0.32-0.5c0.44-0.7,0.88-1.4,1.29-2.1c0,0,0-0.01,0.01-0.01
			c0.42-0.71,0.82-1.43,1.21-2.14c0.08-0.16,0.17-0.31,0.25-0.47c0.77-1.43,3.24-6.39,3.24-6.39c4.47-10.64,5.8-26.09,5.8-26.09
			l22.37-14.41V80.15V74C238.77,73.99,238.75,73.99,238.73,73.98z M41.51,41.93c19.21-10.32,50.87-16.47,85.43-16.47
			c34.57,0,66.23,6.14,85.44,16.47v22.35c-0.59-0.17-1.18-0.33-1.77-0.5c-1.19-0.32-2.39-0.64-3.61-0.95V45.24
			c-18.68-9.04-48.23-14.4-80.06-14.4c-31.82,0-61.37,5.36-80.05,14.4v17.59c-1.82,0.46-3.61,0.95-5.38,1.44V41.93z M146.88,48.98
			c0.29,0.98,0.78,1.75,1.47,2.31c0.69,0.57,1.58,0.92,2.66,1.06c1.01,0.13,1.92-0.01,2.73-0.43c0.82-0.42,1.46-1.15,1.93-2.18
			c1.38,0.64,2.06,0.96,3.42,1.62c-0.56,1.1-1.28,1.98-2.17,2.64s-1.87,1.1-2.96,1.33c-1.09,0.23-2.24,0.26-3.48,0.1
			c-1.8-0.24-3.32-0.79-4.56-1.69c-1.25-0.9-2.17-2.07-2.76-3.53c-0.6-1.46-0.82-3.17-0.65-5.12c0.17-1.95,0.69-3.59,1.58-4.92
			c0.89-1.33,2.09-2.3,3.61-2.9c1.52-0.6,3.25-0.78,5.18-0.52c1.37,0.18,2.58,0.52,3.63,1.03c1.05,0.5,1.9,1.17,2.56,1.99
			c0.65,0.83,1.06,1.79,1.24,2.89c-1.57,0.33-2.35,0.5-3.9,0.86c-0.16-1.15-0.56-2-1.18-2.57s-1.48-0.93-2.57-1.07
			c-1.07-0.14-2.04-0.02-2.9,0.36s-1.56,1.01-2.09,1.89s-0.87,2-1.01,3.36C146.52,46.84,146.59,48,146.88,48.98z M122.85,41.45
			c0.42,0.34,1.12,0.62,2.12,0.84c1.44,0.31,2.16,0.48,3.6,0.82c1.9,0.45,3.25,1.1,4.04,1.94s1.15,1.89,1.09,3.17
			c-0.05,1.2-0.42,2.21-1.1,3.04c-0.67,0.83-1.58,1.45-2.73,1.87s-2.44,0.62-3.91,0.61c-1.28-0.01-2.45-0.16-3.52-0.45
			s-2.03-0.7-2.88-1.21c-0.85-0.52-1.58-1.11-2.16-1.79c0.85-1.06,1.28-1.59,2.15-2.64c0.45,0.58,1,1.1,1.66,1.55
			c0.65,0.45,1.39,0.81,2.21,1.07s1.68,0.4,2.58,0.41c0.77,0.01,1.43-0.07,1.96-0.24c0.54-0.17,0.95-0.41,1.23-0.72
			c0.28-0.32,0.43-0.71,0.44-1.17c0.01-0.48-0.14-0.9-0.47-1.24c-0.33-0.35-0.94-0.63-1.84-0.82c-1.54-0.35-2.31-0.52-3.86-0.85
			c-1.12-0.25-2.08-0.58-2.9-0.98c-0.81-0.4-1.44-0.92-1.87-1.57c-0.44-0.64-0.67-1.42-0.7-2.32c-0.03-1.09,0.25-2.08,0.87-2.96
			s1.53-1.59,2.75-2.12c1.21-0.52,2.69-0.79,4.41-0.77c1.82,0.01,3.42,0.34,4.78,0.95c1.35,0.61,2.49,1.51,3.39,2.68
			c-0.97,0.94-1.44,1.42-2.39,2.37c-0.77-0.99-1.64-1.72-2.6-2.19c-0.96-0.47-2.08-0.72-3.36-0.73c-0.84-0.01-1.53,0.1-2.08,0.3
			c-0.55,0.21-0.94,0.48-1.19,0.81s-0.37,0.71-0.36,1.11C122.23,40.69,122.44,41.11,122.85,41.45z M99.19,55.03
			c-1.53,0.19-2.29,0.3-3.81,0.52c-1.05-7.24-1.58-10.85-2.63-18.09c1.66-0.24,2.5-0.36,4.16-0.56c0.43,3.41,0.76,6.02,1.08,8.58
			c2.34-3.34,4.07-5.63,7.11-9.45c1.94-0.17,2.91-0.25,4.85-0.37c-2.75,3.24-4.34,5.22-6.46,8.03c3.09,3.75,4.84,6.01,7.89,10.2
			c-1.76,0.11-2.63,0.18-4.39,0.33c-2.41-3.21-3.82-5.01-6.11-7.78c-0.9,1.22-1.57,2.14-2.35,3.26
			C98.72,51.29,98.94,53.02,99.19,55.03z M234.47,79.26v52.6v5.56v2.91c0,0-3.33-1.29-3.76-1.42c0.43,0.13,0.79,0.25,1.01,0.34
			l-5.48-2.22l-0.07,0.04c-4.29-1.64-8.83-3.14-13.6-4.5c-0.06-0.02-0.11-0.03-0.17-0.05l-0.01-0.01l0,0v26.82v0.69
			c0,11.6-2.84,28.59-15.99,44.99c-2.34,2.92-5.01,6.02-8.18,9.28c-2.27,2.32-4.79,4.72-7.63,7.16s-6.01,4.95-9.56,7.49
			c-0.71,0.51-1.44,1.02-2.18,1.53c-2.97,2.04-6.19,4.1-9.69,6.17c-4.38,2.59-9.22,5.19-14.56,7.8c-5.35,2.6-11.2,5.2-17.64,7.78
			c-41.18-16.51-58.74-33.88-69.44-47.21c-7.4-9.22-11.54-18.64-13.74-27.18c-0.12-0.47-0.24-0.95-0.35-1.42
			c-0.33-1.41-0.61-2.79-0.85-4.14c-0.08-0.45-0.15-0.9-0.22-1.34c-0.14-0.89-0.25-1.76-0.35-2.61c-0.35-3-0.49-5.8-0.49-8.34
			c0-0.23,0-0.46,0-0.69v-26.78h-0.01H41.5l0,0c-1.46,0.41-2.89,0.85-4.31,1.29c-0.59,0.18-1.18,0.37-1.77,0.56
			c-0.74,0.24-1.48,0.49-2.21,0.73c-3.16,1.07-6.2,2.21-9.1,3.42l-4.49,1.8v-64.4c1.02-0.38,2.99-1.11,3.07-1.14
			C49.3,63.31,87.73,58.08,126.94,58.08c39.02,0,77.26,5.18,103.87,16.54c0.24,0.1,3.41,1.44,3.65,1.54v3.1H234.47z"/>
		<g>
			<path class="st2" d="M58.4,100.87c-2.28-5.8-3.45-8.69-5.82-14.46c-2.3,0.38-3.46,0.57-5.76,0.98
				c-0.27,6.26-0.38,9.38-0.55,15.64c-2.25-5.8-3.4-8.7-5.73-14.48c-2.81,0.54-4.21,0.81-7.01,1.39c4.05,7.44,6.02,11.18,9.86,18.69
				c2.75-0.53,4.13-0.79,6.89-1.27c0.18-3.55,0.28-5.32,0.49-8.87c-0.01-2.05-0.01-3.08-0.01-5.14c0.04-0.01,0.06-0.01,0.1-0.02
				c0.68,1.94,1.02,2.91,1.69,4.85c1.37,3.28,2.05,4.92,3.39,8.22c2.69-0.44,4.04-0.65,6.73-1.04c1.14-8.36,1.76-12.54,3.12-20.9
				c-2.72,0.36-4.08,0.55-6.8,0.96C58.72,91.6,58.6,94.69,58.4,100.87z"/>
			<path class="st2" d="M70.99,83.79c0.98,8.05,1.47,12.07,2.45,20.11c2.51-0.3,3.76-0.45,6.27-0.72
				c-0.86-8.06-1.29-12.09-2.16-20.15C74.93,83.32,73.62,83.47,70.99,83.79z"/>
			<path class="st2" d="M92.47,97.3c-0.1-1.29-0.15-1.93-0.25-3.21c3.29-0.25,4.93-0.36,8.23-0.55c-0.1-1.74-0.15-2.61-0.25-4.35
				c-3.32,0.19-4.99,0.3-8.31,0.56c-0.1-1.31-0.15-1.97-0.25-3.28c4.19-0.32,6.28-0.46,10.48-0.68c-0.1-1.88-0.15-2.81-0.25-4.69
				c-6.87,0.37-10.3,0.61-17.16,1.24c0.74,8.07,1.1,12.11,1.84,20.18c6.71-0.61,10.07-0.85,16.8-1.2c-0.1-1.88-0.15-2.81-0.25-4.69
				C98.84,96.84,96.72,96.98,92.47,97.3z"/>
			<path class="st2" d="M117.98,80.52c-3.92,0.07-5.87,0.13-9.79,0.28c0.32,8.1,0.48,12.15,0.8,20.25c3.74-0.15,5.61-0.2,9.35-0.27
				c3.19-0.06,5.61-0.95,7.29-2.73c1.68-1.77,2.54-4.26,2.55-7.47c0.02-3.23-0.83-5.74-2.57-7.5
				C123.88,81.33,121.32,80.46,117.98,80.52z M120.68,94.8c-0.59,0.92-1.66,1.39-3.2,1.42c-0.92,0.02-1.39,0.03-2.31,0.05
				c-0.11-4.44-0.17-6.67-0.28-11.11c0.95-0.02,1.42-0.03,2.37-0.05c1.58-0.03,2.68,0.41,3.31,1.31c0.63,0.9,0.95,2.3,0.97,4.18
				C121.56,92.49,121.27,93.89,120.68,94.8z"/>
			<path class="st2" d="M134.22,100.79c2.52,0.05,3.78,0.08,6.3,0.16c0.27-8.1,0.4-12.15,0.67-20.25c-2.64-0.09-3.95-0.12-6.59-0.17
				C134.44,88.63,134.37,92.68,134.22,100.79z"/>
			<path class="st2" d="M168.58,82.42c-2.85-0.27-4.27-0.39-7.12-0.61c-2.92,3.17-4.83,5.27-7.04,7.79
				c0.15-2.45,0.32-5.03,0.52-8.25c-2.63-0.17-3.95-0.24-6.58-0.37c-0.39,8.1-0.59,12.14-0.99,20.24c2.52,0.12,3.78,0.19,6.29,0.35
				c0.13-2.03,0.24-3.81,0.34-5.46c0.75-0.83,1.44-1.6,2.28-2.51c1.34,2.89,2.27,4.97,3.79,8.43c2.85,0.22,4.27,0.34,7.11,0.61
				c-2.39-5.18-3.76-8.05-6.07-12.7C163.46,87.51,165.48,85.47,168.58,82.42z"/>
			<path class="st2" d="M187.57,85.54c-1.46-1.03-3.3-1.7-5.51-1.97c-2.19-0.27-4.13-0.08-5.82,0.57s-3.03,1.71-4.04,3.17
				s-1.61,3.28-1.83,5.46s0.02,4.08,0.69,5.72c0.67,1.63,1.73,2.94,3.16,3.93c1.44,0.99,3.2,1.61,5.28,1.87
				c2.11,0.26,3.96,0.09,5.58-0.53c1.62-0.62,2.95-1.63,3.98-3.05c1.04-1.42,1.72-3.21,2.04-5.38c0.32-2.17,0.18-4.08-0.44-5.74
				C190.07,87.93,189.03,86.58,187.57,85.54z M184.56,94.41c-0.17,1.26-0.44,2.28-0.82,3.07s-0.87,1.35-1.49,1.7
				c-0.61,0.34-1.33,0.47-2.16,0.36c-0.85-0.1-1.52-0.4-2.02-0.88c-0.5-0.48-0.84-1.15-1.03-2.01s-0.21-1.91-0.06-3.17
				c0.15-1.28,0.41-2.31,0.79-3.09c0.38-0.78,0.87-1.35,1.48-1.7s1.35-0.47,2.22-0.37c0.85,0.1,1.53,0.4,2.05,0.89
				s0.86,1.16,1.03,2.01C184.73,92.07,184.73,93.14,184.56,94.41z"/>
			<path class="st2" d="M213.08,88.8c-0.67,3.45-1,5.17-1.67,8.62c-0.25,1.58-0.38,2.37-0.64,3.94c-0.01,0-0.02,0-0.03-0.01
				c-0.32-1.18-0.49-1.76-0.82-2.94c-1.49-4.37-2.26-6.56-3.86-10.92c-2.85-0.51-4.28-0.75-7.13-1.21c-1.29,8-1.94,12-3.23,20
				c2.18,0.35,3.27,0.53,5.44,0.91c0.6-3.46,0.91-5.19,1.51-8.65c0.22-1.58,0.34-2.37,0.56-3.95c0.03,0,0.04,0.01,0.06,0.01
				c0.34,1.17,0.51,1.75,0.84,2.92c1.55,4.35,2.29,6.53,3.74,10.89c2.73,0.52,4.09,0.79,6.82,1.36c1.65-7.94,2.47-11.9,4.11-19.84
				C216.51,89.47,215.37,89.24,213.08,88.8z"/>
		</g>
	</g>
	<g class="st1">
		<path class="st2" d="M173.48,205.51c-0.49,0-0.98,0.13-1.49,0.38c-0.51,0.25-0.99,0.58-1.44,1c-0.47,0.44-0.83,0.89-1.08,1.38
			c-0.25,0.48-0.36,0.95-0.36,1.4c0.01,0.45,0.16,0.85,0.46,1.2c0.31,0.36,0.72,0.55,1.2,0.56c0.49,0.01,1.01-0.12,1.56-0.39
			s1.08-0.64,1.58-1.11c0.49-0.46,0.86-0.93,1.09-1.41c0.23-0.47,0.32-0.93,0.28-1.36c-0.05-0.43-0.24-0.81-0.57-1.15
			C174.38,205.67,173.97,205.5,173.48,205.51z"/>
		<path class="st2" d="M169.64,205.62c0.42-0.16,0.83-0.43,1.22-0.81c0.4-0.39,0.7-0.8,0.87-1.24c0.17-0.43,0.23-0.85,0.17-1.26
			c-0.06-0.4-0.25-0.75-0.55-1.04c-0.4-0.39-0.89-0.54-1.48-0.46c-0.59,0.08-1.17,0.41-1.76,0.98c-0.4,0.38-0.68,0.78-0.85,1.21
			c-0.17,0.43-0.23,0.84-0.17,1.24c0.05,0.4,0.22,0.75,0.49,1.06c0.23,0.26,0.53,0.41,0.89,0.47
			C168.83,205.84,169.22,205.78,169.64,205.62z"/>
		<path class="st2" d="M207,159.34v-28.25c0,0-0.22,0.3-0.27,0.37c-1.68,2.39-7.99,11.14-17.09,20.71
			c-23.8,25.04-47.74,45.29-72.84,61.25c-8.52,5.43-17.39,10.41-25.56,14.7l-0.02,0.01c9.22,6.02,20.83,12.2,35.72,18.3
			c38.64-15.82,55.17-32.2,65.25-44.76c12.24-15.25,14.81-31.05,14.81-41.63V159.34z M153.7,225.8c-0.73-3.52-1.14-5.27-2.03-8.73
			c-0.09-0.39-0.16-0.73-0.22-1.04c-0.06-0.3-0.11-0.6-0.14-0.89c-0.12,0.32-0.33,0.7-0.63,1.12s-0.64,0.83-1.02,1.23
			s-0.76,0.74-1.15,1.02c-0.26-0.51-0.4-0.77-0.66-1.29c0.42-0.32,0.84-0.72,1.26-1.19s0.8-0.95,1.12-1.44
			c0.33-0.49,0.55-0.9,0.67-1.23c0.5-0.29,0.74-0.43,1.23-0.73c1.45,4.84,2.1,7.29,3.21,12.26
			C154.69,225.27,154.36,225.45,153.7,225.8z M165.72,217.67c-0.46,0.9-1.21,1.71-2.23,2.42c-0.77,0.53-1.52,0.86-2.24,1
			s-1.39,0.1-2.01-0.09s-1.17-0.53-1.66-1c0.54-0.57,0.81-0.85,1.34-1.43c0.28,0.29,0.61,0.53,1,0.72s0.84,0.26,1.33,0.21
			c0.49-0.05,1.01-0.26,1.56-0.63c0.68-0.47,1.19-1.01,1.51-1.61c0.32-0.6,0.49-1.23,0.52-1.89c0.02-0.66-0.07-1.32-0.29-1.98
			c-0.22-0.66-0.52-1.29-0.9-1.91c0.15,0.45,0.16,0.92,0.04,1.4c-0.12,0.48-0.34,0.94-0.66,1.37c-0.31,0.43-0.7,0.81-1.14,1.12
			c-0.77,0.55-1.53,0.88-2.27,1c-0.73,0.12-1.4,0.05-1.99-0.21c-0.59-0.26-1.07-0.68-1.43-1.25c-0.42-0.67-0.64-1.38-0.65-2.14
			s0.17-1.49,0.55-2.21c0.37-0.71,0.94-1.34,1.7-1.88c0.86-0.62,1.67-0.98,2.44-1.07c0.78-0.1,1.51,0.03,2.2,0.38
			s1.33,0.89,1.92,1.62c0.61,0.76,1.1,1.59,1.47,2.49c0.37,0.9,0.56,1.83,0.57,2.78C166.4,215.84,166.18,216.77,165.72,217.67z
			 M176.44,208.77c-0.37,0.8-0.93,1.56-1.7,2.27c-0.57,0.53-1.17,0.97-1.78,1.31c-0.62,0.34-1.23,0.57-1.82,0.69
			c-0.59,0.12-1.14,0.1-1.64-0.03c-0.5-0.14-0.92-0.42-1.27-0.84c-0.43-0.51-0.65-1.07-0.69-1.66c-0.03-0.59,0.09-1.2,0.36-1.83
			c0.21-0.49,0.53-0.97,0.91-1.46c-0.22,0.05-0.44,0.09-0.65,0.09c-0.36,0-0.71-0.07-1.03-0.21c-0.32-0.14-0.59-0.34-0.82-0.6
			c-0.47-0.54-0.73-1.14-0.8-1.8c-0.06-0.66,0.05-1.32,0.33-1.99s0.73-1.29,1.35-1.88c0.58-0.55,1.17-0.97,1.8-1.26
			s1.24-0.42,1.83-0.39s1.13,0.26,1.59,0.7c0.6,0.57,0.92,1.28,0.93,2.14c0.01,0.73-0.21,1.45-0.64,2.16
			c0.31-0.11,0.62-0.2,0.91-0.25c0.44-0.07,0.85-0.06,1.24,0.04c0.39,0.1,0.74,0.29,1.05,0.59c0.55,0.53,0.87,1.16,0.95,1.9
			C176.95,207.21,176.8,207.98,176.44,208.77z M179.77,205.75c-0.29-0.5-0.44-0.75-0.74-1.25c0.32-1.41,0.59-2.73,0.83-3.97
			s0.37-2.37,0.41-3.38c0.04-1.01-0.05-1.89-0.25-2.62s-0.6-1.31-1.16-1.73c-0.53-0.4-1.07-0.51-1.62-0.33
			c-0.55,0.18-1.03,0.53-1.46,1.07c-0.6,0.75-0.89,1.5-0.88,2.28s0.23,1.53,0.67,2.23c-0.64,0.15-0.96,0.22-1.59,0.35
			c-0.29-0.56-0.47-1.17-0.53-1.83c-0.07-0.66,0-1.32,0.21-1.99c0.2-0.68,0.57-1.33,1.08-1.98c0.5-0.63,1.03-1.1,1.6-1.42
			c0.57-0.32,1.15-0.49,1.73-0.49s1.13,0.18,1.64,0.55c0.55,0.4,0.97,0.91,1.26,1.54c0.29,0.63,0.48,1.34,0.56,2.13
			c0.08,0.79,0.09,1.63,0.02,2.52c-0.07,0.89-0.18,1.78-0.34,2.67s-0.31,1.75-0.47,2.57c0.01,0,0.01,0.01,0.01,0.01
			c0.1-0.14,0.27-0.34,0.49-0.63c0.23-0.28,0.39-0.48,0.48-0.6c1.6-1.89,2.36-2.87,3.84-4.87c0.35,0.46,0.52,0.7,0.87,1.16
			C183.93,201.1,182.6,202.7,179.77,205.75z"/>
		<path class="st2" d="M161.18,209.28c-0.41-0.15-0.83-0.17-1.28-0.07c-0.44,0.1-0.89,0.31-1.35,0.64c-0.5,0.36-0.88,0.76-1.12,1.2
			c-0.24,0.44-0.36,0.89-0.34,1.35s0.17,0.91,0.46,1.35c0.24,0.36,0.56,0.64,0.96,0.83c0.4,0.19,0.85,0.26,1.35,0.19
			c0.5-0.07,1.02-0.29,1.56-0.67c0.56-0.4,0.94-0.84,1.16-1.32c0.22-0.48,0.29-0.95,0.22-1.42c-0.07-0.47-0.24-0.88-0.52-1.25
			C161.96,209.71,161.59,209.43,161.18,209.28z"/>
	</g>
</g>
<g id="Gelb" class="st0">
	<g class="st1">
		<g>
			<path class="st3" d="M235.07,72.5c1.24,0.48,2.47,0.96,3.67,1.48l0.05-0.03c-0.15-0.06-3.31-1.36-5.6-2.31
				C234.09,72.06,235.02,72.48,235.07,72.5L235.07,72.5z"/>
			<path class="st3" d="M238.73,73.98c0.02,0.01,0.03,0.01,0.05,0.02C238.77,73.99,238.75,73.99,238.73,73.98L238.73,73.98z"/>
			<path class="st3" d="M212.56,132.52v0.06c4.77,1.36,9.31,2.86,13.6,4.5l0.07-0.04c-4.31-1.64-8.86-3.15-13.65-4.51L212.56,132.52
				z"/>
		</g>
		<g>
			<path class="st3" d="M135.17,122.48C135.22,122.43,135.17,122.48,135.17,122.48c-2.73-0.05-5.48-0.08-8.23-0.08
				c-28.51,0-56.6,2.76-80.04,8.68h-0.01v28.27l0,0.65c0,6.18,0.88,14.14,4.04,22.74l0.01,0.02l0,0
				C57.29,200.67,74,214.52,74,214.52c58.19-28.13,107.66-87.19,107.66-87.19C166.11,124.24,150.37,122.74,135.17,122.48"/>
		</g>
		<path class="st3" d="M238.73,73.98L238.73,73.98c-1.2-0.52-17.34-7-22.52-8.58V39.64c-20.87-12.05-55.65-18.01-89.27-18.01
			c-33.6,0-68.39,5.96-89.26,18.01V65.4c-5.34,1.64-18.58,7.07-18.67,7.1l0,0c-1.26,0.49-2.51,0.97-3.72,1.5v6.15v68.33l22.54,14.7
			c0,0,1.39,16.86,6.79,28.43c0.98,2.1,2.09,4.22,3.33,6.33c1.86,3.17,4.04,6.34,6.56,9.48c13.45,16.76,32.91,33.32,72.43,48.94
			c12.35-4.88,22.74-9.85,31.61-14.9c0.89-0.5,1.76-1.01,2.61-1.51c17.97-10.62,29.39-21.53,38.21-32.53c0,0,0,0,0-0.01
			c0.56-0.69,1.09-1.39,1.61-2.09c0.13-0.18,0.26-0.35,0.39-0.53c0.51-0.69,1-1.38,1.48-2.06c0.01-0.01,0.01-0.02,0.02-0.03
			c0.49-0.71,0.95-1.41,1.41-2.12c0.11-0.17,0.21-0.33,0.32-0.5c0.44-0.7,0.88-1.4,1.29-2.1c0,0,0-0.01,0.01-0.01
			c0.42-0.71,0.82-1.43,1.21-2.14c0.08-0.16,0.17-0.31,0.25-0.47c0.77-1.43,3.24-6.39,3.24-6.39c4.47-10.64,5.8-26.09,5.8-26.09
			l22.37-14.41V80.15V74C238.77,73.99,238.75,73.99,238.73,73.98z M41.51,41.93c19.21-10.32,50.87-16.47,85.43-16.47
			c34.57,0,66.23,6.14,85.44,16.47v22.35c-0.59-0.17-1.18-0.33-1.77-0.5c-1.19-0.32-2.39-0.64-3.61-0.95V45.24
			c-18.68-9.04-48.23-14.4-80.06-14.4c-31.82,0-61.37,5.36-80.05,14.4v17.59c-1.82,0.46-3.61,0.95-5.38,1.44V41.93z M146.88,48.98
			c0.29,0.98,0.78,1.75,1.47,2.31c0.69,0.57,1.58,0.92,2.66,1.06c1.01,0.13,1.92-0.01,2.73-0.43c0.82-0.42,1.46-1.15,1.93-2.18
			c1.38,0.64,2.06,0.96,3.42,1.62c-0.56,1.1-1.28,1.98-2.17,2.64s-1.87,1.1-2.96,1.33c-1.09,0.23-2.24,0.26-3.48,0.1
			c-1.8-0.24-3.32-0.79-4.56-1.69c-1.25-0.9-2.17-2.07-2.76-3.53c-0.6-1.46-0.82-3.17-0.65-5.12c0.17-1.95,0.69-3.59,1.58-4.92
			c0.89-1.33,2.09-2.3,3.61-2.9c1.52-0.6,3.25-0.78,5.18-0.52c1.37,0.18,2.58,0.52,3.63,1.03c1.05,0.5,1.9,1.17,2.56,1.99
			c0.65,0.83,1.06,1.79,1.24,2.89c-1.57,0.33-2.35,0.5-3.9,0.86c-0.16-1.15-0.56-2-1.18-2.57s-1.48-0.93-2.57-1.07
			c-1.07-0.14-2.04-0.02-2.9,0.36s-1.56,1.01-2.09,1.89s-0.87,2-1.01,3.36C146.52,46.84,146.59,48,146.88,48.98z M122.85,41.45
			c0.42,0.34,1.12,0.62,2.12,0.84c1.44,0.31,2.16,0.48,3.6,0.82c1.9,0.45,3.25,1.1,4.04,1.94s1.15,1.89,1.09,3.17
			c-0.05,1.2-0.42,2.21-1.1,3.04c-0.67,0.83-1.58,1.45-2.73,1.87s-2.44,0.62-3.91,0.61c-1.28-0.01-2.45-0.16-3.52-0.45
			s-2.03-0.7-2.88-1.21c-0.85-0.52-1.58-1.11-2.16-1.79c0.85-1.06,1.28-1.59,2.15-2.64c0.45,0.58,1,1.1,1.66,1.55
			c0.65,0.45,1.39,0.81,2.21,1.07s1.68,0.4,2.58,0.41c0.77,0.01,1.43-0.07,1.96-0.24c0.54-0.17,0.95-0.41,1.23-0.72
			c0.28-0.32,0.43-0.71,0.44-1.17c0.01-0.48-0.14-0.9-0.47-1.24c-0.33-0.35-0.94-0.63-1.84-0.82c-1.54-0.35-2.31-0.52-3.86-0.85
			c-1.12-0.25-2.08-0.58-2.9-0.98c-0.81-0.4-1.44-0.92-1.87-1.57c-0.44-0.64-0.67-1.42-0.7-2.32c-0.03-1.09,0.25-2.08,0.87-2.96
			s1.53-1.59,2.75-2.12c1.21-0.52,2.69-0.79,4.41-0.77c1.82,0.01,3.42,0.34,4.78,0.95c1.35,0.61,2.49,1.51,3.39,2.68
			c-0.97,0.94-1.44,1.42-2.39,2.37c-0.77-0.99-1.64-1.72-2.6-2.19c-0.96-0.47-2.08-0.72-3.36-0.73c-0.84-0.01-1.53,0.1-2.08,0.3
			c-0.55,0.21-0.94,0.48-1.19,0.81s-0.37,0.71-0.36,1.11C122.23,40.69,122.44,41.11,122.85,41.45z M99.19,55.03
			c-1.53,0.19-2.29,0.3-3.81,0.52c-1.05-7.24-1.58-10.85-2.63-18.09c1.66-0.24,2.5-0.36,4.16-0.56c0.43,3.41,0.76,6.02,1.08,8.58
			c2.34-3.34,4.07-5.63,7.11-9.45c1.94-0.17,2.91-0.25,4.85-0.37c-2.75,3.24-4.34,5.22-6.46,8.03c3.09,3.75,4.84,6.01,7.89,10.2
			c-1.76,0.11-2.63,0.18-4.39,0.33c-2.41-3.21-3.82-5.01-6.11-7.78c-0.9,1.22-1.57,2.14-2.35,3.26
			C98.72,51.29,98.94,53.02,99.19,55.03z M234.47,79.26v52.6v5.56v2.91c0,0-3.33-1.29-3.76-1.42c0.43,0.13,0.79,0.25,1.01,0.34
			l-5.48-2.22l-0.07,0.04c-4.29-1.64-8.83-3.14-13.6-4.5c-0.06-0.02-0.11-0.03-0.17-0.05l-0.01-0.01l0,0v26.82v0.69
			c0,11.6-2.84,28.59-15.99,44.99c-2.34,2.92-5.01,6.02-8.18,9.28c-2.27,2.32-4.79,4.72-7.63,7.16s-6.01,4.95-9.56,7.49
			c-0.71,0.51-1.44,1.02-2.18,1.53c-2.97,2.04-6.19,4.1-9.69,6.17c-4.38,2.59-9.22,5.19-14.56,7.8c-5.35,2.6-11.2,5.2-17.64,7.78
			c-41.18-16.51-58.74-33.88-69.44-47.21c-7.4-9.22-11.54-18.64-13.74-27.18c-0.12-0.47-0.24-0.95-0.35-1.42
			c-0.33-1.41-0.61-2.79-0.85-4.14c-0.08-0.45-0.15-0.9-0.22-1.34c-0.14-0.89-0.25-1.76-0.35-2.61c-0.35-3-0.49-5.8-0.49-8.34
			c0-0.23,0-0.46,0-0.69v-26.78h-0.01H41.5l0,0c-1.46,0.41-2.89,0.85-4.31,1.29c-0.59,0.18-1.18,0.37-1.77,0.56
			c-0.74,0.24-1.48,0.49-2.21,0.73c-3.16,1.07-6.2,2.21-9.1,3.42l-4.49,1.8v-64.4c1.02-0.38,2.99-1.11,3.07-1.14
			C49.3,63.31,87.73,58.08,126.94,58.08c39.02,0,77.26,5.18,103.87,16.54c0.24,0.1,3.41,1.44,3.65,1.54v3.1H234.47z"/>
		<g>
			<path class="st3" d="M58.4,100.87c-2.28-5.8-3.45-8.69-5.82-14.46c-2.3,0.38-3.46,0.57-5.76,0.98
				c-0.27,6.26-0.38,9.38-0.55,15.64c-2.25-5.8-3.4-8.7-5.73-14.48c-2.81,0.54-4.21,0.81-7.01,1.39c4.05,7.44,6.02,11.18,9.86,18.69
				c2.75-0.53,4.13-0.79,6.89-1.27c0.18-3.55,0.28-5.32,0.49-8.87c-0.01-2.05-0.01-3.08-0.01-5.14c0.04-0.01,0.06-0.01,0.1-0.02
				c0.68,1.94,1.02,2.91,1.69,4.85c1.37,3.28,2.05,4.92,3.39,8.22c2.69-0.44,4.04-0.65,6.73-1.04c1.14-8.36,1.76-12.54,3.12-20.9
				c-2.72,0.36-4.08,0.55-6.8,0.96C58.72,91.6,58.6,94.69,58.4,100.87z"/>
			<path class="st3" d="M70.99,83.79c0.98,8.05,1.47,12.07,2.45,20.11c2.51-0.3,3.76-0.45,6.27-0.72
				c-0.86-8.06-1.29-12.09-2.16-20.15C74.93,83.32,73.62,83.47,70.99,83.79z"/>
			<path class="st3" d="M92.47,97.3c-0.1-1.29-0.15-1.93-0.25-3.21c3.29-0.25,4.93-0.36,8.23-0.55c-0.1-1.74-0.15-2.61-0.25-4.35
				c-3.32,0.19-4.99,0.3-8.31,0.56c-0.1-1.31-0.15-1.97-0.25-3.28c4.19-0.32,6.28-0.46,10.48-0.68c-0.1-1.88-0.15-2.81-0.25-4.69
				c-6.87,0.37-10.3,0.61-17.16,1.24c0.74,8.07,1.1,12.11,1.84,20.18c6.71-0.61,10.07-0.85,16.8-1.2c-0.1-1.88-0.15-2.81-0.25-4.69
				C98.84,96.84,96.72,96.98,92.47,97.3z"/>
			<path class="st3" d="M117.98,80.52c-3.92,0.07-5.87,0.13-9.79,0.28c0.32,8.1,0.48,12.15,0.8,20.25c3.74-0.15,5.61-0.2,9.35-0.27
				c3.19-0.06,5.61-0.95,7.29-2.73c1.68-1.77,2.54-4.26,2.55-7.47c0.02-3.23-0.83-5.74-2.57-7.5
				C123.88,81.33,121.32,80.46,117.98,80.52z M120.68,94.8c-0.59,0.92-1.66,1.39-3.2,1.42c-0.92,0.02-1.39,0.03-2.31,0.05
				c-0.11-4.44-0.17-6.67-0.28-11.11c0.95-0.02,1.42-0.03,2.37-0.05c1.58-0.03,2.68,0.41,3.31,1.31c0.63,0.9,0.95,2.3,0.97,4.18
				C121.56,92.49,121.27,93.89,120.68,94.8z"/>
			<path class="st3" d="M134.22,100.79c2.52,0.05,3.78,0.08,6.3,0.16c0.27-8.1,0.4-12.15,0.67-20.25c-2.64-0.09-3.95-0.12-6.59-0.17
				C134.44,88.63,134.37,92.68,134.22,100.79z"/>
			<path class="st3" d="M168.58,82.42c-2.85-0.27-4.27-0.39-7.12-0.61c-2.92,3.17-4.83,5.27-7.04,7.79
				c0.15-2.45,0.32-5.03,0.52-8.25c-2.63-0.17-3.95-0.24-6.58-0.37c-0.39,8.1-0.59,12.14-0.99,20.24c2.52,0.12,3.78,0.19,6.29,0.35
				c0.13-2.03,0.24-3.81,0.34-5.46c0.75-0.83,1.44-1.6,2.28-2.51c1.34,2.89,2.27,4.97,3.79,8.43c2.85,0.22,4.27,0.34,7.11,0.61
				c-2.39-5.18-3.76-8.05-6.07-12.7C163.46,87.51,165.48,85.47,168.58,82.42z"/>
			<path class="st3" d="M187.57,85.54c-1.46-1.03-3.3-1.7-5.51-1.97c-2.19-0.27-4.13-0.08-5.82,0.57s-3.03,1.71-4.04,3.17
				s-1.61,3.28-1.83,5.46s0.02,4.08,0.69,5.72c0.67,1.63,1.73,2.94,3.16,3.93c1.44,0.99,3.2,1.61,5.28,1.87
				c2.11,0.26,3.96,0.09,5.58-0.53c1.62-0.62,2.95-1.63,3.98-3.05c1.04-1.42,1.72-3.21,2.04-5.38c0.32-2.17,0.18-4.08-0.44-5.74
				C190.07,87.93,189.03,86.58,187.57,85.54z M184.56,94.41c-0.17,1.26-0.44,2.28-0.82,3.07s-0.87,1.35-1.49,1.7
				c-0.61,0.34-1.33,0.47-2.16,0.36c-0.85-0.1-1.52-0.4-2.02-0.88c-0.5-0.48-0.84-1.15-1.03-2.01s-0.21-1.91-0.06-3.17
				c0.15-1.28,0.41-2.31,0.79-3.09c0.38-0.78,0.87-1.35,1.48-1.7s1.35-0.47,2.22-0.37c0.85,0.1,1.53,0.4,2.05,0.89
				s0.86,1.16,1.03,2.01C184.73,92.07,184.73,93.14,184.56,94.41z"/>
			<path class="st3" d="M213.08,88.8c-0.67,3.45-1,5.17-1.67,8.62c-0.25,1.58-0.38,2.37-0.64,3.94c-0.01,0-0.02,0-0.03-0.01
				c-0.32-1.18-0.49-1.76-0.82-2.94c-1.49-4.37-2.26-6.56-3.86-10.92c-2.85-0.51-4.28-0.75-7.13-1.21c-1.29,8-1.94,12-3.23,20
				c2.18,0.35,3.27,0.53,5.44,0.91c0.6-3.46,0.91-5.19,1.51-8.65c0.22-1.58,0.34-2.37,0.56-3.95c0.03,0,0.04,0.01,0.06,0.01
				c0.34,1.17,0.51,1.75,0.84,2.92c1.55,4.35,2.29,6.53,3.74,10.89c2.73,0.52,4.09,0.79,6.82,1.36c1.65-7.94,2.47-11.9,4.11-19.84
				C216.51,89.47,215.37,89.24,213.08,88.8z"/>
		</g>
	</g>
	<g class="st1">
		<path class="st3" d="M173.48,205.51c-0.49,0-0.98,0.13-1.49,0.38c-0.51,0.25-0.99,0.58-1.44,1c-0.47,0.44-0.83,0.89-1.08,1.38
			c-0.25,0.48-0.36,0.95-0.36,1.4c0.01,0.45,0.16,0.85,0.46,1.2c0.31,0.36,0.72,0.55,1.2,0.56c0.49,0.01,1.01-0.12,1.56-0.39
			s1.08-0.64,1.58-1.11c0.49-0.46,0.86-0.93,1.09-1.41c0.23-0.47,0.32-0.93,0.28-1.36c-0.05-0.43-0.24-0.81-0.57-1.15
			C174.38,205.67,173.97,205.5,173.48,205.51z"/>
		<path class="st3" d="M169.64,205.62c0.42-0.16,0.83-0.43,1.22-0.81c0.4-0.39,0.7-0.8,0.87-1.24c0.17-0.43,0.23-0.85,0.17-1.26
			c-0.06-0.4-0.25-0.75-0.55-1.04c-0.4-0.39-0.89-0.54-1.48-0.46c-0.59,0.08-1.17,0.41-1.76,0.98c-0.4,0.38-0.68,0.78-0.85,1.21
			c-0.17,0.43-0.23,0.84-0.17,1.24c0.05,0.4,0.22,0.75,0.49,1.06c0.23,0.26,0.53,0.41,0.89,0.47
			C168.83,205.84,169.22,205.78,169.64,205.62z"/>
		<path class="st3" d="M207,159.34v-28.25c0,0-0.22,0.3-0.27,0.37c-1.68,2.39-7.99,11.14-17.09,20.71
			c-23.8,25.04-47.74,45.29-72.84,61.25c-8.52,5.43-17.39,10.41-25.56,14.7l-0.02,0.01c9.22,6.02,20.83,12.2,35.72,18.3
			c38.64-15.82,55.17-32.2,65.25-44.76c12.24-15.25,14.81-31.05,14.81-41.63V159.34z M153.7,225.8c-0.73-3.52-1.14-5.27-2.03-8.73
			c-0.09-0.39-0.16-0.73-0.22-1.04c-0.06-0.3-0.11-0.6-0.14-0.89c-0.12,0.32-0.33,0.7-0.63,1.12s-0.64,0.83-1.02,1.23
			s-0.76,0.74-1.15,1.02c-0.26-0.51-0.4-0.77-0.66-1.29c0.42-0.32,0.84-0.72,1.26-1.19s0.8-0.95,1.12-1.44
			c0.33-0.49,0.55-0.9,0.67-1.23c0.5-0.29,0.74-0.43,1.23-0.73c1.45,4.84,2.1,7.29,3.21,12.26
			C154.69,225.27,154.36,225.45,153.7,225.8z M165.72,217.67c-0.46,0.9-1.21,1.71-2.23,2.42c-0.77,0.53-1.52,0.86-2.24,1
			s-1.39,0.1-2.01-0.09s-1.17-0.53-1.66-1c0.54-0.57,0.81-0.85,1.34-1.43c0.28,0.29,0.61,0.53,1,0.72s0.84,0.26,1.33,0.21
			c0.49-0.05,1.01-0.26,1.56-0.63c0.68-0.47,1.19-1.01,1.51-1.61c0.32-0.6,0.49-1.23,0.52-1.89c0.02-0.66-0.07-1.32-0.29-1.98
			c-0.22-0.66-0.52-1.29-0.9-1.91c0.15,0.45,0.16,0.92,0.04,1.4c-0.12,0.48-0.34,0.94-0.66,1.37c-0.31,0.43-0.7,0.81-1.14,1.12
			c-0.77,0.55-1.53,0.88-2.27,1c-0.73,0.12-1.4,0.05-1.99-0.21c-0.59-0.26-1.07-0.68-1.43-1.25c-0.42-0.67-0.64-1.38-0.65-2.14
			s0.17-1.49,0.55-2.21c0.37-0.71,0.94-1.34,1.7-1.88c0.86-0.62,1.67-0.98,2.44-1.07c0.78-0.1,1.51,0.03,2.2,0.38
			s1.33,0.89,1.92,1.62c0.61,0.76,1.1,1.59,1.47,2.49c0.37,0.9,0.56,1.83,0.57,2.78C166.4,215.84,166.18,216.77,165.72,217.67z
			 M176.44,208.77c-0.37,0.8-0.93,1.56-1.7,2.27c-0.57,0.53-1.17,0.97-1.78,1.31c-0.62,0.34-1.23,0.57-1.82,0.69
			c-0.59,0.12-1.14,0.1-1.64-0.03c-0.5-0.14-0.92-0.42-1.27-0.84c-0.43-0.51-0.65-1.07-0.69-1.66c-0.03-0.59,0.09-1.2,0.36-1.83
			c0.21-0.49,0.53-0.97,0.91-1.46c-0.22,0.05-0.44,0.09-0.65,0.09c-0.36,0-0.71-0.07-1.03-0.21c-0.32-0.14-0.59-0.34-0.82-0.6
			c-0.47-0.54-0.73-1.14-0.8-1.8c-0.06-0.66,0.05-1.32,0.33-1.99s0.73-1.29,1.35-1.88c0.58-0.55,1.17-0.97,1.8-1.26
			s1.24-0.42,1.83-0.39s1.13,0.26,1.59,0.7c0.6,0.57,0.92,1.28,0.93,2.14c0.01,0.73-0.21,1.45-0.64,2.16
			c0.31-0.11,0.62-0.2,0.91-0.25c0.44-0.07,0.85-0.06,1.24,0.04c0.39,0.1,0.74,0.29,1.05,0.59c0.55,0.53,0.87,1.16,0.95,1.9
			C176.95,207.21,176.8,207.98,176.44,208.77z M179.77,205.75c-0.29-0.5-0.44-0.75-0.74-1.25c0.32-1.41,0.59-2.73,0.83-3.97
			s0.37-2.37,0.41-3.38c0.04-1.01-0.05-1.89-0.25-2.62s-0.6-1.31-1.16-1.73c-0.53-0.4-1.07-0.51-1.62-0.33
			c-0.55,0.18-1.03,0.53-1.46,1.07c-0.6,0.75-0.89,1.5-0.88,2.28s0.23,1.53,0.67,2.23c-0.64,0.15-0.96,0.22-1.59,0.35
			c-0.29-0.56-0.47-1.17-0.53-1.83c-0.07-0.66,0-1.32,0.21-1.99c0.2-0.68,0.57-1.33,1.08-1.98c0.5-0.63,1.03-1.1,1.6-1.42
			c0.57-0.32,1.15-0.49,1.73-0.49s1.13,0.18,1.64,0.55c0.55,0.4,0.97,0.91,1.26,1.54c0.29,0.63,0.48,1.34,0.56,2.13
			c0.08,0.79,0.09,1.63,0.02,2.52c-0.07,0.89-0.18,1.78-0.34,2.67s-0.31,1.75-0.47,2.57c0.01,0,0.01,0.01,0.01,0.01
			c0.1-0.14,0.27-0.34,0.49-0.63c0.23-0.28,0.39-0.48,0.48-0.6c1.6-1.89,2.36-2.87,3.84-4.87c0.35,0.46,0.52,0.7,0.87,1.16
			C183.93,201.1,182.6,202.7,179.77,205.75z"/>
		<path class="st3" d="M161.18,209.28c-0.41-0.15-0.83-0.17-1.28-0.07c-0.44,0.1-0.89,0.31-1.35,0.64c-0.5,0.36-0.88,0.76-1.12,1.2
			c-0.24,0.44-0.36,0.89-0.34,1.35s0.17,0.91,0.46,1.35c0.24,0.36,0.56,0.64,0.96,0.83c0.4,0.19,0.85,0.26,1.35,0.19
			c0.5-0.07,1.02-0.29,1.56-0.67c0.56-0.4,0.94-0.84,1.16-1.32c0.22-0.48,0.29-0.95,0.22-1.42c-0.07-0.47-0.24-0.88-0.52-1.25
			C161.96,209.71,161.59,209.43,161.18,209.28z"/>
	</g>
</g>
<g id="Weiss" class="st0">
	<g class="st1">
		<g>
			<path class="st4" d="M235.07,72.5c1.24,0.48,2.47,0.96,3.67,1.48l0.05-0.03c-0.15-0.06-3.31-1.36-5.6-2.31
				C234.09,72.06,235.02,72.48,235.07,72.5L235.07,72.5z"/>
			<path class="st4" d="M238.73,73.98c0.02,0.01,0.03,0.01,0.05,0.02C238.77,73.99,238.75,73.99,238.73,73.98L238.73,73.98z"/>
			<path class="st4" d="M212.56,132.52v0.06c4.77,1.36,9.31,2.86,13.6,4.5l0.07-0.04c-4.31-1.64-8.86-3.15-13.65-4.51L212.56,132.52
				z"/>
		</g>
		<g>
			<path class="st4" d="M135.17,122.48C135.22,122.43,135.17,122.48,135.17,122.48c-2.73-0.05-5.48-0.08-8.23-0.08
				c-28.51,0-56.6,2.76-80.04,8.68h-0.01v28.27l0,0.65c0,6.18,0.88,14.14,4.04,22.74l0.01,0.02l0,0
				C57.29,200.67,74,214.52,74,214.52c58.19-28.13,107.66-87.19,107.66-87.19C166.11,124.24,150.37,122.74,135.17,122.48"/>
		</g>
		<path class="st4" d="M238.73,73.98L238.73,73.98c-1.2-0.52-17.34-7-22.52-8.58V39.64c-20.87-12.05-55.65-18.01-89.27-18.01
			c-33.6,0-68.39,5.96-89.26,18.01V65.4c-5.34,1.64-18.58,7.07-18.67,7.1l0,0c-1.26,0.49-2.51,0.97-3.72,1.5v6.15v68.33l22.54,14.7
			c0,0,1.39,16.86,6.79,28.43c0.98,2.1,2.09,4.22,3.33,6.33c1.86,3.17,4.04,6.34,6.56,9.48c13.45,16.76,32.91,33.32,72.43,48.94
			c12.35-4.88,22.74-9.85,31.61-14.9c0.89-0.5,1.76-1.01,2.61-1.51c17.97-10.62,29.39-21.53,38.21-32.53c0,0,0,0,0-0.01
			c0.56-0.69,1.09-1.39,1.61-2.09c0.13-0.18,0.26-0.35,0.39-0.53c0.51-0.69,1-1.38,1.48-2.06c0.01-0.01,0.01-0.02,0.02-0.03
			c0.49-0.71,0.95-1.41,1.41-2.12c0.11-0.17,0.21-0.33,0.32-0.5c0.44-0.7,0.88-1.4,1.29-2.1c0,0,0-0.01,0.01-0.01
			c0.42-0.71,0.82-1.43,1.21-2.14c0.08-0.16,0.17-0.31,0.25-0.47c0.77-1.43,3.24-6.39,3.24-6.39c4.47-10.64,5.8-26.09,5.8-26.09
			l22.37-14.41V80.15V74C238.77,73.99,238.75,73.99,238.73,73.98z M41.51,41.93c19.21-10.32,50.87-16.47,85.43-16.47
			c34.57,0,66.23,6.14,85.44,16.47v22.35c-0.59-0.17-1.18-0.33-1.77-0.5c-1.19-0.32-2.39-0.64-3.61-0.95V45.24
			c-18.68-9.04-48.23-14.4-80.06-14.4c-31.82,0-61.37,5.36-80.05,14.4v17.59c-1.82,0.46-3.61,0.95-5.38,1.44V41.93z M146.88,48.98
			c0.29,0.98,0.78,1.75,1.47,2.31c0.69,0.57,1.58,0.92,2.66,1.06c1.01,0.13,1.92-0.01,2.73-0.43c0.82-0.42,1.46-1.15,1.93-2.18
			c1.38,0.64,2.06,0.96,3.42,1.62c-0.56,1.1-1.28,1.98-2.17,2.64s-1.87,1.1-2.96,1.33c-1.09,0.23-2.24,0.26-3.48,0.1
			c-1.8-0.24-3.32-0.79-4.56-1.69c-1.25-0.9-2.17-2.07-2.76-3.53c-0.6-1.46-0.82-3.17-0.65-5.12c0.17-1.95,0.69-3.59,1.58-4.92
			c0.89-1.33,2.09-2.3,3.61-2.9c1.52-0.6,3.25-0.78,5.18-0.52c1.37,0.18,2.58,0.52,3.63,1.03c1.05,0.5,1.9,1.17,2.56,1.99
			c0.65,0.83,1.06,1.79,1.24,2.89c-1.57,0.33-2.35,0.5-3.9,0.86c-0.16-1.15-0.56-2-1.18-2.57s-1.48-0.93-2.57-1.07
			c-1.07-0.14-2.04-0.02-2.9,0.36s-1.56,1.01-2.09,1.89s-0.87,2-1.01,3.36C146.52,46.84,146.59,48,146.88,48.98z M122.85,41.45
			c0.42,0.34,1.12,0.62,2.12,0.84c1.44,0.31,2.16,0.48,3.6,0.82c1.9,0.45,3.25,1.1,4.04,1.94s1.15,1.89,1.09,3.17
			c-0.05,1.2-0.42,2.21-1.1,3.04c-0.67,0.83-1.58,1.45-2.73,1.87s-2.44,0.62-3.91,0.61c-1.28-0.01-2.45-0.16-3.52-0.45
			s-2.03-0.7-2.88-1.21c-0.85-0.52-1.58-1.11-2.16-1.79c0.85-1.06,1.28-1.59,2.15-2.64c0.45,0.58,1,1.1,1.66,1.55
			c0.65,0.45,1.39,0.81,2.21,1.07s1.68,0.4,2.58,0.41c0.77,0.01,1.43-0.07,1.96-0.24c0.54-0.17,0.95-0.41,1.23-0.72
			c0.28-0.32,0.43-0.71,0.44-1.17c0.01-0.48-0.14-0.9-0.47-1.24c-0.33-0.35-0.94-0.63-1.84-0.82c-1.54-0.35-2.31-0.52-3.86-0.85
			c-1.12-0.25-2.08-0.58-2.9-0.98c-0.81-0.4-1.44-0.92-1.87-1.57c-0.44-0.64-0.67-1.42-0.7-2.32c-0.03-1.09,0.25-2.08,0.87-2.96
			s1.53-1.59,2.75-2.12c1.21-0.52,2.69-0.79,4.41-0.77c1.82,0.01,3.42,0.34,4.78,0.95c1.35,0.61,2.49,1.51,3.39,2.68
			c-0.97,0.94-1.44,1.42-2.39,2.37c-0.77-0.99-1.64-1.72-2.6-2.19c-0.96-0.47-2.08-0.72-3.36-0.73c-0.84-0.01-1.53,0.1-2.08,0.3
			c-0.55,0.21-0.94,0.48-1.19,0.81s-0.37,0.71-0.36,1.11C122.23,40.69,122.44,41.11,122.85,41.45z M99.19,55.03
			c-1.53,0.19-2.29,0.3-3.81,0.52c-1.05-7.24-1.58-10.85-2.63-18.09c1.66-0.24,2.5-0.36,4.16-0.56c0.43,3.41,0.76,6.02,1.08,8.58
			c2.34-3.34,4.07-5.63,7.11-9.45c1.94-0.17,2.91-0.25,4.85-0.37c-2.75,3.24-4.34,5.22-6.46,8.03c3.09,3.75,4.84,6.01,7.89,10.2
			c-1.76,0.11-2.63,0.18-4.39,0.33c-2.41-3.21-3.82-5.01-6.11-7.78c-0.9,1.22-1.57,2.14-2.35,3.26
			C98.72,51.29,98.94,53.02,99.19,55.03z M234.47,79.26v52.6v5.56v2.91c0,0-3.33-1.29-3.76-1.42c0.43,0.13,0.79,0.25,1.01,0.34
			l-5.48-2.22l-0.07,0.04c-4.29-1.64-8.83-3.14-13.6-4.5c-0.06-0.02-0.11-0.03-0.17-0.05l-0.01-0.01l0,0v26.82v0.69
			c0,11.6-2.84,28.59-15.99,44.99c-2.34,2.92-5.01,6.02-8.18,9.28c-2.27,2.32-4.79,4.72-7.63,7.16s-6.01,4.95-9.56,7.49
			c-0.71,0.51-1.44,1.02-2.18,1.53c-2.97,2.04-6.19,4.1-9.69,6.17c-4.38,2.59-9.22,5.19-14.56,7.8c-5.35,2.6-11.2,5.2-17.64,7.78
			c-41.18-16.51-58.74-33.88-69.44-47.21c-7.4-9.22-11.54-18.64-13.74-27.18c-0.12-0.47-0.24-0.95-0.35-1.42
			c-0.33-1.41-0.61-2.79-0.85-4.14c-0.08-0.45-0.15-0.9-0.22-1.34c-0.14-0.89-0.25-1.76-0.35-2.61c-0.35-3-0.49-5.8-0.49-8.34
			c0-0.23,0-0.46,0-0.69v-26.78h-0.01H41.5l0,0c-1.46,0.41-2.89,0.85-4.31,1.29c-0.59,0.18-1.18,0.37-1.77,0.56
			c-0.74,0.24-1.48,0.49-2.21,0.73c-3.16,1.07-6.2,2.21-9.1,3.42l-4.49,1.8v-64.4c1.02-0.38,2.99-1.11,3.07-1.14
			C49.3,63.31,87.73,58.08,126.94,58.08c39.02,0,77.26,5.18,103.87,16.54c0.24,0.1,3.41,1.44,3.65,1.54v3.1H234.47z"/>
		<g>
			<path class="st4" d="M58.4,100.87c-2.28-5.8-3.45-8.69-5.82-14.46c-2.3,0.38-3.46,0.57-5.76,0.98
				c-0.27,6.26-0.38,9.38-0.55,15.64c-2.25-5.8-3.4-8.7-5.73-14.48c-2.81,0.54-4.21,0.81-7.01,1.39c4.05,7.44,6.02,11.18,9.86,18.69
				c2.75-0.53,4.13-0.79,6.89-1.27c0.18-3.55,0.28-5.32,0.49-8.87c-0.01-2.05-0.01-3.08-0.01-5.14c0.04-0.01,0.06-0.01,0.1-0.02
				c0.68,1.94,1.02,2.91,1.69,4.85c1.37,3.28,2.05,4.92,3.39,8.22c2.69-0.44,4.04-0.65,6.73-1.04c1.14-8.36,1.76-12.54,3.12-20.9
				c-2.72,0.36-4.08,0.55-6.8,0.96C58.72,91.6,58.6,94.69,58.4,100.87z"/>
			<path class="st4" d="M70.99,83.79c0.98,8.05,1.47,12.07,2.45,20.11c2.51-0.3,3.76-0.45,6.27-0.72
				c-0.86-8.06-1.29-12.09-2.16-20.15C74.93,83.32,73.62,83.47,70.99,83.79z"/>
			<path class="st4" d="M92.47,97.3c-0.1-1.29-0.15-1.93-0.25-3.21c3.29-0.25,4.93-0.36,8.23-0.55c-0.1-1.74-0.15-2.61-0.25-4.35
				c-3.32,0.19-4.99,0.3-8.31,0.56c-0.1-1.31-0.15-1.97-0.25-3.28c4.19-0.32,6.28-0.46,10.48-0.68c-0.1-1.88-0.15-2.81-0.25-4.69
				c-6.87,0.37-10.3,0.61-17.16,1.24c0.74,8.07,1.1,12.11,1.84,20.18c6.71-0.61,10.07-0.85,16.8-1.2c-0.1-1.88-0.15-2.81-0.25-4.69
				C98.84,96.84,96.72,96.98,92.47,97.3z"/>
			<path class="st4" d="M117.98,80.52c-3.92,0.07-5.87,0.13-9.79,0.28c0.32,8.1,0.48,12.15,0.8,20.25c3.74-0.15,5.61-0.2,9.35-0.27
				c3.19-0.06,5.61-0.95,7.29-2.73c1.68-1.77,2.54-4.26,2.55-7.47c0.02-3.23-0.83-5.74-2.57-7.5
				C123.88,81.33,121.32,80.46,117.98,80.52z M120.68,94.8c-0.59,0.92-1.66,1.39-3.2,1.42c-0.92,0.02-1.39,0.03-2.31,0.05
				c-0.11-4.44-0.17-6.67-0.28-11.11c0.95-0.02,1.42-0.03,2.37-0.05c1.58-0.03,2.68,0.41,3.31,1.31c0.63,0.9,0.95,2.3,0.97,4.18
				C121.56,92.49,121.27,93.89,120.68,94.8z"/>
			<path class="st4" d="M134.22,100.79c2.52,0.05,3.78,0.08,6.3,0.16c0.27-8.1,0.4-12.15,0.67-20.25c-2.64-0.09-3.95-0.12-6.59-0.17
				C134.44,88.63,134.37,92.68,134.22,100.79z"/>
			<path class="st4" d="M168.58,82.42c-2.85-0.27-4.27-0.39-7.12-0.61c-2.92,3.17-4.83,5.27-7.04,7.79
				c0.15-2.45,0.32-5.03,0.52-8.25c-2.63-0.17-3.95-0.24-6.58-0.37c-0.39,8.1-0.59,12.14-0.99,20.24c2.52,0.12,3.78,0.19,6.29,0.35
				c0.13-2.03,0.24-3.81,0.34-5.46c0.75-0.83,1.44-1.6,2.28-2.51c1.34,2.89,2.27,4.97,3.79,8.43c2.85,0.22,4.27,0.34,7.11,0.61
				c-2.39-5.18-3.76-8.05-6.07-12.7C163.46,87.51,165.48,85.47,168.58,82.42z"/>
			<path class="st4" d="M187.57,85.54c-1.46-1.03-3.3-1.7-5.51-1.97c-2.19-0.27-4.13-0.08-5.82,0.57s-3.03,1.71-4.04,3.17
				s-1.61,3.28-1.83,5.46s0.02,4.08,0.69,5.72c0.67,1.63,1.73,2.94,3.16,3.93c1.44,0.99,3.2,1.61,5.28,1.87
				c2.11,0.26,3.96,0.09,5.58-0.53c1.62-0.62,2.95-1.63,3.98-3.05c1.04-1.42,1.72-3.21,2.04-5.38c0.32-2.17,0.18-4.08-0.44-5.74
				C190.07,87.93,189.03,86.58,187.57,85.54z M184.56,94.41c-0.17,1.26-0.44,2.28-0.82,3.07s-0.87,1.35-1.49,1.7
				c-0.61,0.34-1.33,0.47-2.16,0.36c-0.85-0.1-1.52-0.4-2.02-0.88c-0.5-0.48-0.84-1.15-1.03-2.01s-0.21-1.91-0.06-3.17
				c0.15-1.28,0.41-2.31,0.79-3.09c0.38-0.78,0.87-1.35,1.48-1.7s1.35-0.47,2.22-0.37c0.85,0.1,1.53,0.4,2.05,0.89
				s0.86,1.16,1.03,2.01C184.73,92.07,184.73,93.14,184.56,94.41z"/>
			<path class="st4" d="M213.08,88.8c-0.67,3.45-1,5.17-1.67,8.62c-0.25,1.58-0.38,2.37-0.64,3.94c-0.01,0-0.02,0-0.03-0.01
				c-0.32-1.18-0.49-1.76-0.82-2.94c-1.49-4.37-2.26-6.56-3.86-10.92c-2.85-0.51-4.28-0.75-7.13-1.21c-1.29,8-1.94,12-3.23,20
				c2.18,0.35,3.27,0.53,5.44,0.91c0.6-3.46,0.91-5.19,1.51-8.65c0.22-1.58,0.34-2.37,0.56-3.95c0.03,0,0.04,0.01,0.06,0.01
				c0.34,1.17,0.51,1.75,0.84,2.92c1.55,4.35,2.29,6.53,3.74,10.89c2.73,0.52,4.09,0.79,6.82,1.36c1.65-7.94,2.47-11.9,4.11-19.84
				C216.51,89.47,215.37,89.24,213.08,88.8z"/>
		</g>
	</g>
	<g class="st1">
		<path class="st4" d="M173.48,205.51c-0.49,0-0.98,0.13-1.49,0.38c-0.51,0.25-0.99,0.58-1.44,1c-0.47,0.44-0.83,0.89-1.08,1.38
			c-0.25,0.48-0.36,0.95-0.36,1.4c0.01,0.45,0.16,0.85,0.46,1.2c0.31,0.36,0.72,0.55,1.2,0.56c0.49,0.01,1.01-0.12,1.56-0.39
			s1.08-0.64,1.58-1.11c0.49-0.46,0.86-0.93,1.09-1.41c0.23-0.47,0.32-0.93,0.28-1.36c-0.05-0.43-0.24-0.81-0.57-1.15
			C174.38,205.67,173.97,205.5,173.48,205.51z"/>
		<path class="st4" d="M169.64,205.62c0.42-0.16,0.83-0.43,1.22-0.81c0.4-0.39,0.7-0.8,0.87-1.24c0.17-0.43,0.23-0.85,0.17-1.26
			c-0.06-0.4-0.25-0.75-0.55-1.04c-0.4-0.39-0.89-0.54-1.48-0.46c-0.59,0.08-1.17,0.41-1.76,0.98c-0.4,0.38-0.68,0.78-0.85,1.21
			c-0.17,0.43-0.23,0.84-0.17,1.24c0.05,0.4,0.22,0.75,0.49,1.06c0.23,0.26,0.53,0.41,0.89,0.47
			C168.83,205.84,169.22,205.78,169.64,205.62z"/>
		<path class="st4" d="M207,159.34v-28.25c0,0-0.22,0.3-0.27,0.37c-1.68,2.39-7.99,11.14-17.09,20.71
			c-23.8,25.04-47.74,45.29-72.84,61.25c-8.52,5.43-17.39,10.41-25.56,14.7l-0.02,0.01c9.22,6.02,20.83,12.2,35.72,18.3
			c38.64-15.82,55.17-32.2,65.25-44.76c12.24-15.25,14.81-31.05,14.81-41.63V159.34z M153.7,225.8c-0.73-3.52-1.14-5.27-2.03-8.73
			c-0.09-0.39-0.16-0.73-0.22-1.04c-0.06-0.3-0.11-0.6-0.14-0.89c-0.12,0.32-0.33,0.7-0.63,1.12s-0.64,0.83-1.02,1.23
			s-0.76,0.74-1.15,1.02c-0.26-0.51-0.4-0.77-0.66-1.29c0.42-0.32,0.84-0.72,1.26-1.19s0.8-0.95,1.12-1.44
			c0.33-0.49,0.55-0.9,0.67-1.23c0.5-0.29,0.74-0.43,1.23-0.73c1.45,4.84,2.1,7.29,3.21,12.26
			C154.69,225.27,154.36,225.45,153.7,225.8z M165.72,217.67c-0.46,0.9-1.21,1.71-2.23,2.42c-0.77,0.53-1.52,0.86-2.24,1
			s-1.39,0.1-2.01-0.09s-1.17-0.53-1.66-1c0.54-0.57,0.81-0.85,1.34-1.43c0.28,0.29,0.61,0.53,1,0.72s0.84,0.26,1.33,0.21
			c0.49-0.05,1.01-0.26,1.56-0.63c0.68-0.47,1.19-1.01,1.51-1.61c0.32-0.6,0.49-1.23,0.52-1.89c0.02-0.66-0.07-1.32-0.29-1.98
			c-0.22-0.66-0.52-1.29-0.9-1.91c0.15,0.45,0.16,0.92,0.04,1.4c-0.12,0.48-0.34,0.94-0.66,1.37c-0.31,0.43-0.7,0.81-1.14,1.12
			c-0.77,0.55-1.53,0.88-2.27,1c-0.73,0.12-1.4,0.05-1.99-0.21c-0.59-0.26-1.07-0.68-1.43-1.25c-0.42-0.67-0.64-1.38-0.65-2.14
			s0.17-1.49,0.55-2.21c0.37-0.71,0.94-1.34,1.7-1.88c0.86-0.62,1.67-0.98,2.44-1.07c0.78-0.1,1.51,0.03,2.2,0.38
			s1.33,0.89,1.92,1.62c0.61,0.76,1.1,1.59,1.47,2.49c0.37,0.9,0.56,1.83,0.57,2.78C166.4,215.84,166.18,216.77,165.72,217.67z
			 M176.44,208.77c-0.37,0.8-0.93,1.56-1.7,2.27c-0.57,0.53-1.17,0.97-1.78,1.31c-0.62,0.34-1.23,0.57-1.82,0.69
			c-0.59,0.12-1.14,0.1-1.64-0.03c-0.5-0.14-0.92-0.42-1.27-0.84c-0.43-0.51-0.65-1.07-0.69-1.66c-0.03-0.59,0.09-1.2,0.36-1.83
			c0.21-0.49,0.53-0.97,0.91-1.46c-0.22,0.05-0.44,0.09-0.65,0.09c-0.36,0-0.71-0.07-1.03-0.21c-0.32-0.14-0.59-0.34-0.82-0.6
			c-0.47-0.54-0.73-1.14-0.8-1.8c-0.06-0.66,0.05-1.32,0.33-1.99s0.73-1.29,1.35-1.88c0.58-0.55,1.17-0.97,1.8-1.26
			s1.24-0.42,1.83-0.39s1.13,0.26,1.59,0.7c0.6,0.57,0.92,1.28,0.93,2.14c0.01,0.73-0.21,1.45-0.64,2.16
			c0.31-0.11,0.62-0.2,0.91-0.25c0.44-0.07,0.85-0.06,1.24,0.04c0.39,0.1,0.74,0.29,1.05,0.59c0.55,0.53,0.87,1.16,0.95,1.9
			C176.95,207.21,176.8,207.98,176.44,208.77z M179.77,205.75c-0.29-0.5-0.44-0.75-0.74-1.25c0.32-1.41,0.59-2.73,0.83-3.97
			s0.37-2.37,0.41-3.38c0.04-1.01-0.05-1.89-0.25-2.62s-0.6-1.31-1.16-1.73c-0.53-0.4-1.07-0.51-1.62-0.33
			c-0.55,0.18-1.03,0.53-1.46,1.07c-0.6,0.75-0.89,1.5-0.88,2.28s0.23,1.53,0.67,2.23c-0.64,0.15-0.96,0.22-1.59,0.35
			c-0.29-0.56-0.47-1.17-0.53-1.83c-0.07-0.66,0-1.32,0.21-1.99c0.2-0.68,0.57-1.33,1.08-1.98c0.5-0.63,1.03-1.1,1.6-1.42
			c0.57-0.32,1.15-0.49,1.73-0.49s1.13,0.18,1.64,0.55c0.55,0.4,0.97,0.91,1.26,1.54c0.29,0.63,0.48,1.34,0.56,2.13
			c0.08,0.79,0.09,1.63,0.02,2.52c-0.07,0.89-0.18,1.78-0.34,2.67s-0.31,1.75-0.47,2.57c0.01,0,0.01,0.01,0.01,0.01
			c0.1-0.14,0.27-0.34,0.49-0.63c0.23-0.28,0.39-0.48,0.48-0.6c1.6-1.89,2.36-2.87,3.84-4.87c0.35,0.46,0.52,0.7,0.87,1.16
			C183.93,201.1,182.6,202.7,179.77,205.75z"/>
		<path class="st4" d="M161.18,209.28c-0.41-0.15-0.83-0.17-1.28-0.07c-0.44,0.1-0.89,0.31-1.35,0.64c-0.5,0.36-0.88,0.76-1.12,1.2
			c-0.24,0.44-0.36,0.89-0.34,1.35s0.17,0.91,0.46,1.35c0.24,0.36,0.56,0.64,0.96,0.83c0.4,0.19,0.85,0.26,1.35,0.19
			c0.5-0.07,1.02-0.29,1.56-0.67c0.56-0.4,0.94-0.84,1.16-1.32c0.22-0.48,0.29-0.95,0.22-1.42c-0.07-0.47-0.24-0.88-0.52-1.25
			C161.96,209.71,161.59,209.43,161.18,209.28z"/>
	</g>
</g>
<g id="Trio">
	<path class="st4" d="M238.78,73.96c-0.15-0.06-3.31-1.36-5.6-2.31c0.77,0.35,1.55,0.7,1.8,0.81c-5.39-2.15-14.99-5.91-18.77-7.06
		V39.64C173.9,15.61,80,15.61,37.68,39.64V65.4c-5.34,1.64-18.58,7.07-18.67,7.1l0,0c-1.26,0.49-2.51,0.97-3.72,1.5v6.15v68.33
		l22.54,14.7c4.78,45.14,33.95,70.2,89.11,93.18c46.34-17.97,87.96-49.83,89.47-93.47l22.37-14.41c0-4.07,0-72.59,0-74.48
		c-0.02-0.01-0.03-0.01-0.05-0.02L238.78,73.96z M215.98,133.59c1.92,0.59,3.79,1.21,5.63,1.84
		C219.77,134.79,217.89,134.18,215.98,133.59z M235.79,72.79c0.75,0.29,1.5,0.59,2.23,0.9C237.5,73.47,236.72,73.16,235.79,72.79z"
		/>
	<path class="st2" d="M24.06,134.57c26.2-11.55,64.15-16.81,102.88-16.81c38.74,0,76.68,5.26,102.89,16.81V79.72
		c-26.2-11.55-64.15-16.81-102.89-16.81c-38.73,0-76.68,5.26-102.88,16.81C24.06,79.72,24.06,134.57,24.06,134.57z"/>
	<g>
		<path class="st2" d="M109.95,35.64c-1.94,0.13-2.91,0.2-4.85,0.37c-3.04,3.82-4.78,6.11-7.11,9.45c-0.32-2.56-0.65-5.17-1.08-8.58
			c-1.67,0.21-2.5,0.32-4.16,0.56c1.05,7.24,1.58,10.85,2.63,18.09c1.52-0.22,2.29-0.33,3.81-0.52c-0.25-2.01-0.47-3.74-0.67-5.34
			c0.78-1.12,1.45-2.04,2.35-3.26c2.29,2.76,3.7,4.57,6.11,7.78c1.75-0.15,2.63-0.22,4.39-0.33c-3.05-4.19-4.79-6.46-7.89-10.2
			C105.6,40.86,107.2,38.88,109.95,35.64z"/>
		<path class="st2" d="M147.68,42.14c0.53-0.88,1.23-1.51,2.09-1.89s1.83-0.5,2.9-0.36c1.09,0.14,1.95,0.5,2.57,1.07
			c0.62,0.57,1.02,1.42,1.18,2.57c1.55-0.36,2.33-0.53,3.9-0.86c-0.18-1.1-0.59-2.06-1.24-2.89c-0.65-0.83-1.5-1.49-2.56-1.99
			c-1.05-0.5-2.27-0.85-3.63-1.03c-1.93-0.25-3.67-0.07-5.18,0.52c-1.52,0.6-2.72,1.57-3.61,2.9s-1.41,2.97-1.58,4.92
			c-0.17,1.95,0.06,3.66,0.65,5.12c0.6,1.46,1.52,2.64,2.76,3.53c1.24,0.9,2.76,1.45,4.56,1.69c1.23,0.16,2.39,0.13,3.48-0.1
			s2.07-0.67,2.96-1.33c0.89-0.66,1.61-1.54,2.17-2.64c-1.36-0.66-2.05-0.98-3.42-1.62c-0.47,1.03-1.11,1.75-1.93,2.18
			c-0.82,0.42-1.72,0.57-2.73,0.43c-1.08-0.14-1.97-0.49-2.66-1.06s-1.19-1.34-1.47-2.31s-0.36-2.14-0.22-3.48
			C146.81,44.14,147.14,43.02,147.68,42.14z"/>
		<path class="st2" d="M123.77,38.27c0.55-0.2,1.24-0.31,2.08-0.3c1.28,0.01,2.4,0.25,3.36,0.73c0.96,0.47,1.82,1.21,2.6,2.19
			c0.95-0.95,1.42-1.43,2.39-2.37c-0.9-1.17-2.04-2.06-3.39-2.68c-1.36-0.61-2.95-0.93-4.78-0.95c-1.72-0.01-3.2,0.25-4.41,0.77
			c-1.22,0.52-2.13,1.23-2.75,2.12c-0.62,0.88-0.9,1.87-0.87,2.96c0.03,0.9,0.26,1.68,0.7,2.32c0.44,0.64,1.06,1.16,1.87,1.57
			c0.81,0.4,1.78,0.73,2.9,0.98c1.55,0.33,2.32,0.5,3.86,0.85c0.9,0.2,1.51,0.48,1.84,0.82c0.33,0.35,0.48,0.77,0.47,1.24
			c-0.01,0.46-0.16,0.85-0.44,1.17s-0.69,0.56-1.23,0.72c-0.54,0.17-1.19,0.24-1.96,0.24c-0.9-0.01-1.76-0.14-2.58-0.41
			c-0.82-0.26-1.56-0.62-2.21-1.07s-1.2-0.97-1.66-1.55c-0.87,1.05-1.3,1.58-2.15,2.64c0.59,0.68,1.31,1.28,2.16,1.79
			c0.85,0.52,1.81,0.92,2.88,1.21s2.24,0.44,3.52,0.45c1.46,0.01,2.76-0.19,3.91-0.61c1.15-0.42,2.06-1.04,2.73-1.87
			c0.67-0.83,1.04-1.84,1.1-3.04c0.06-1.27-0.3-2.33-1.09-3.17c-0.79-0.84-2.13-1.49-4.04-1.94c-1.43-0.34-2.15-0.5-3.6-0.82
			c-1-0.22-1.71-0.5-2.12-0.84s-0.63-0.76-0.63-1.26c0-0.41,0.12-0.78,0.36-1.11C122.83,38.75,123.23,38.48,123.77,38.27z"/>
		<path class="st3" d="M207,66.77L207,66.77C207.03,66.78,207.02,66.78,207,66.77z"/>
		<path class="st3" d="M126.94,30.84c-31.82,0-61.37,5.36-80.05,14.4c0,0,0,20.2,0,21.53c23.51-5.98,51.39-8.69,80.05-8.69
			c28.23,0,56.05,2.71,79.36,8.51c0,0,0.6,0.15,0.7,0.18V45.24C188.32,36.2,158.77,30.84,126.94,30.84z M106.98,54.2
			c-2.41-3.21-3.82-5.01-6.11-7.78c-0.9,1.22-1.57,2.14-2.35,3.26c0.2,1.61,0.42,3.33,0.67,5.34c-1.53,0.19-2.29,0.3-3.81,0.52
			c-1.05-7.24-1.58-10.85-2.63-18.09c1.66-0.24,2.5-0.36,4.16-0.56c0.43,3.41,0.76,6.02,1.08,8.58c2.34-3.34,4.07-5.63,7.11-9.45
			c1.94-0.17,2.91-0.25,4.85-0.37c-2.75,3.24-4.34,5.22-6.46,8.03c3.09,3.75,4.84,6.01,7.89,10.2
			C109.61,53.98,108.73,54.05,106.98,54.2z M122.85,41.45c0.42,0.34,1.12,0.62,2.12,0.84c1.44,0.31,2.16,0.48,3.6,0.82
			c1.9,0.45,3.25,1.1,4.04,1.94s1.15,1.89,1.09,3.17c-0.05,1.2-0.42,2.21-1.1,3.04c-0.67,0.83-1.58,1.45-2.73,1.87
			s-2.44,0.62-3.91,0.61c-1.28-0.01-2.45-0.16-3.52-0.45s-2.03-0.7-2.88-1.21c-0.85-0.52-1.58-1.11-2.16-1.79
			c0.85-1.06,1.28-1.59,2.15-2.64c0.45,0.58,1,1.1,1.66,1.55c0.65,0.45,1.39,0.81,2.21,1.07s1.68,0.4,2.58,0.41
			c0.77,0.01,1.43-0.07,1.96-0.24c0.54-0.17,0.95-0.41,1.23-0.72c0.28-0.32,0.43-0.71,0.44-1.17c0.01-0.48-0.14-0.9-0.47-1.24
			c-0.33-0.35-0.94-0.63-1.84-0.82c-1.54-0.35-2.31-0.52-3.86-0.85c-1.12-0.25-2.08-0.58-2.9-0.98c-0.81-0.4-1.44-0.92-1.87-1.57
			c-0.44-0.64-0.67-1.42-0.7-2.32c-0.03-1.09,0.25-2.08,0.87-2.96s1.53-1.59,2.75-2.12c1.21-0.52,2.69-0.79,4.41-0.77
			c1.82,0.01,3.42,0.34,4.78,0.95c1.35,0.61,2.49,1.51,3.39,2.68c-0.97,0.94-1.44,1.42-2.39,2.37c-0.77-0.99-1.64-1.72-2.6-2.19
			c-0.96-0.47-2.08-0.72-3.36-0.73c-0.84-0.01-1.53,0.1-2.08,0.3c-0.55,0.21-0.94,0.48-1.19,0.81s-0.37,0.71-0.36,1.11
			C122.23,40.69,122.44,41.11,122.85,41.45z M146.88,48.98c0.29,0.98,0.78,1.75,1.47,2.31c0.69,0.57,1.58,0.92,2.66,1.06
			c1.01,0.13,1.92-0.01,2.73-0.43c0.82-0.42,1.46-1.15,1.93-2.18c1.38,0.64,2.06,0.96,3.42,1.62c-0.56,1.1-1.28,1.98-2.17,2.64
			s-1.87,1.1-2.96,1.33c-1.09,0.23-2.24,0.26-3.48,0.1c-1.8-0.24-3.32-0.79-4.56-1.69c-1.25-0.9-2.17-2.07-2.76-3.53
			c-0.6-1.46-0.82-3.17-0.65-5.12c0.17-1.95,0.69-3.59,1.58-4.92c0.89-1.33,2.09-2.3,3.61-2.9c1.52-0.6,3.25-0.78,5.18-0.52
			c1.37,0.18,2.58,0.52,3.63,1.03c1.05,0.5,1.9,1.17,2.56,1.99c0.65,0.83,1.06,1.79,1.24,2.89c-1.57,0.33-2.35,0.5-3.9,0.86
			c-0.16-1.15-0.56-2-1.18-2.57s-1.48-0.93-2.57-1.07c-1.07-0.14-2.04-0.02-2.9,0.36s-1.56,1.01-2.09,1.89s-0.87,2-1.01,3.36
			C146.52,46.84,146.59,48,146.88,48.98z"/>
	</g>
	<g>
		<path class="st3" d="M135.17,122.48C135.22,122.43,135.17,122.48,135.17,122.48c-2.73-0.05-5.48-0.08-8.23-0.08
			c-28.51,0-56.6,2.76-80.04,8.68h-0.01v28.27l0,0.65c0,6.18,0.88,14.14,4.04,22.74l0.01,0.02l0,0C57.29,200.67,74,214.52,74,214.52
			c58.19-28.13,107.66-87.19,107.66-87.19C166.11,124.24,150.37,122.74,135.17,122.48"/>
	</g>
	<path class="st2" d="M238.78,73.96c-0.15-0.06-3.31-1.36-5.6-2.31c0.77,0.35,1.55,0.7,1.8,0.81c-5.39-2.15-14.99-5.91-18.77-7.06
		V39.64C173.9,15.61,80,15.61,37.68,39.64V65.4c-5.34,1.64-18.58,7.07-18.67,7.1l0,0c-1.26,0.49-2.51,0.97-3.72,1.5v6.15v68.33
		l22.54,14.7c4.78,45.14,33.95,70.2,89.11,93.18c46.34-17.97,87.96-49.83,89.47-93.47l22.37-14.41c0-4.07,0-72.59,0-74.48
		c-0.02-0.01-0.03-0.01-0.05-0.02L238.78,73.96z M215.98,133.59c1.92,0.59,3.79,1.21,5.63,1.84
		C219.77,134.79,217.89,134.18,215.98,133.59z M234.47,79.26c0,5.93,0,56.58,0,61.07c0,0-3.33-1.29-3.76-1.42
		c0.43,0.13,0.79,0.25,1.01,0.34l-5.48-2.22c-4.31-1.64-8.86-3.15-13.65-4.51l-0.02-0.01v0.05c-0.06-0.02-0.12-0.04-0.18-0.05v26.82
		v0.69c2.25,42.93-46.41,78.16-85.44,92.2c-52.51-23.28-70.86-39.38-83.18-74.38c-3.52-11.69-1.92-33.2-2.25-45.33
		c-7.45,2.06-14.84,4.9-21.9,7.81v-64.4c7.45-2.9,13.69-5.5,21.93-7.74c0-1.31-0.03-26.27-0.03-26.27
		c37.12-21.66,133.75-21.66,170.87,0c0,0,0.03,24.81-0.09,26.26c8.08,2.25,15.04,4.86,22.17,7.97L234.47,79.26L234.47,79.26z
		 M235.79,72.79c0.75,0.29,1.5,0.59,2.23,0.9C237.5,73.47,236.72,73.16,235.79,72.79z"/>
	<g>
		<path class="st4" d="M58.4,100.87c-2.28-5.8-3.45-8.69-5.82-14.46c-2.3,0.38-3.46,0.57-5.76,0.98c-0.27,6.26-0.38,9.38-0.55,15.64
			c-2.25-5.8-3.4-8.7-5.73-14.48c-2.81,0.54-4.21,0.81-7.01,1.39c4.05,7.44,6.02,11.18,9.86,18.69c2.75-0.53,4.13-0.79,6.89-1.27
			c0.18-3.55,0.28-5.32,0.49-8.87c-0.01-2.05-0.01-3.08-0.01-5.14c0.04-0.01,0.06-0.01,0.1-0.02c0.68,1.94,1.02,2.91,1.69,4.85
			c1.37,3.28,2.05,4.92,3.39,8.22c2.69-0.44,4.04-0.65,6.73-1.04c1.14-8.36,1.76-12.54,3.12-20.9c-2.72,0.36-4.08,0.55-6.8,0.96
			C58.72,91.6,58.6,94.69,58.4,100.87z"/>
		<path class="st4" d="M70.99,83.79c0.98,8.05,1.47,12.07,2.45,20.11c2.51-0.3,3.76-0.45,6.27-0.72
			c-0.86-8.06-1.29-12.09-2.16-20.15C74.93,83.32,73.62,83.47,70.99,83.79z"/>
		<path class="st4" d="M92.47,97.3c-0.1-1.29-0.15-1.93-0.25-3.21c3.29-0.25,4.93-0.36,8.23-0.55c-0.1-1.74-0.15-2.61-0.25-4.35
			c-3.32,0.19-4.99,0.3-8.31,0.56c-0.1-1.31-0.15-1.97-0.25-3.28c4.19-0.32,6.28-0.46,10.48-0.68c-0.1-1.88-0.15-2.81-0.25-4.69
			c-6.87,0.37-10.3,0.61-17.16,1.24c0.74,8.07,1.1,12.11,1.84,20.18c6.71-0.61,10.07-0.85,16.8-1.2c-0.1-1.88-0.15-2.81-0.25-4.69
			C98.84,96.84,96.72,96.98,92.47,97.3z"/>
		<path class="st4" d="M117.98,80.52c-3.92,0.07-5.87,0.13-9.79,0.28c0.32,8.1,0.48,12.15,0.8,20.25c3.74-0.15,5.61-0.2,9.35-0.27
			c3.19-0.06,5.61-0.95,7.29-2.73c1.68-1.77,2.54-4.26,2.55-7.47c0.02-3.23-0.83-5.74-2.57-7.5
			C123.88,81.33,121.32,80.46,117.98,80.52z M120.68,94.8c-0.59,0.92-1.66,1.39-3.2,1.42c-0.92,0.02-1.39,0.03-2.31,0.05
			c-0.11-4.44-0.17-6.67-0.28-11.11c0.95-0.02,1.42-0.03,2.37-0.05c1.58-0.03,2.68,0.41,3.31,1.31c0.63,0.9,0.95,2.3,0.97,4.18
			C121.56,92.49,121.27,93.89,120.68,94.8z"/>
		<path class="st4" d="M134.22,100.79c2.52,0.05,3.78,0.08,6.3,0.16c0.27-8.1,0.4-12.15,0.67-20.25c-2.64-0.09-3.95-0.12-6.59-0.17
			C134.44,88.63,134.37,92.68,134.22,100.79z"/>
		<path class="st4" d="M168.58,82.42c-2.85-0.27-4.27-0.39-7.12-0.61c-2.92,3.17-4.83,5.27-7.04,7.79c0.15-2.45,0.32-5.03,0.52-8.25
			c-2.63-0.17-3.95-0.24-6.58-0.37c-0.39,8.1-0.59,12.14-0.99,20.24c2.52,0.12,3.78,0.19,6.29,0.35c0.13-2.03,0.24-3.81,0.34-5.46
			c0.75-0.83,1.44-1.6,2.28-2.51c1.34,2.89,2.27,4.97,3.79,8.43c2.85,0.22,4.27,0.34,7.11,0.61c-2.39-5.18-3.76-8.05-6.07-12.7
			C163.46,87.51,165.48,85.47,168.58,82.42z"/>
		<path class="st4" d="M187.57,85.54c-1.46-1.03-3.3-1.7-5.51-1.97c-2.19-0.27-4.13-0.08-5.82,0.57s-3.03,1.71-4.04,3.17
			s-1.61,3.28-1.83,5.46s0.02,4.08,0.69,5.72c0.67,1.63,1.73,2.94,3.16,3.93c1.44,0.99,3.2,1.61,5.28,1.87
			c2.11,0.26,3.96,0.09,5.58-0.53c1.62-0.62,2.95-1.63,3.98-3.05c1.04-1.42,1.72-3.21,2.04-5.38c0.32-2.17,0.18-4.08-0.44-5.74
			C190.07,87.93,189.03,86.58,187.57,85.54z M184.56,94.41c-0.17,1.26-0.44,2.28-0.82,3.07s-0.87,1.35-1.49,1.7
			c-0.61,0.34-1.33,0.47-2.16,0.36c-0.85-0.1-1.52-0.4-2.02-0.88c-0.5-0.48-0.84-1.15-1.03-2.01s-0.21-1.91-0.06-3.17
			c0.15-1.28,0.41-2.31,0.79-3.09c0.38-0.78,0.87-1.35,1.48-1.7s1.35-0.47,2.22-0.37c0.85,0.1,1.53,0.4,2.05,0.89
			s0.86,1.16,1.03,2.01C184.73,92.07,184.73,93.14,184.56,94.41z"/>
		<path class="st4" d="M213.08,88.8c-0.67,3.45-1,5.17-1.67,8.62c-0.25,1.58-0.38,2.37-0.64,3.94c-0.01,0-0.02,0-0.03-0.01
			c-0.32-1.18-0.49-1.76-0.82-2.94c-1.49-4.37-2.26-6.56-3.86-10.92c-2.85-0.51-4.28-0.75-7.13-1.21c-1.29,8-1.94,12-3.23,20
			c2.18,0.35,3.27,0.53,5.44,0.91c0.6-3.46,0.91-5.19,1.51-8.65c0.22-1.58,0.34-2.37,0.56-3.95c0.03,0,0.04,0.01,0.06,0.01
			c0.34,1.17,0.51,1.75,0.84,2.92c1.55,4.35,2.29,6.53,3.74,10.89c2.73,0.52,4.09,0.79,6.82,1.36c1.65-7.94,2.47-11.9,4.11-19.84
			C216.51,89.47,215.37,89.24,213.08,88.8z"/>
	</g>
	<g>
		<path class="st3" d="M173.48,205.51c-0.49,0-0.98,0.13-1.49,0.38c-0.51,0.25-0.99,0.58-1.44,1c-0.47,0.44-0.83,0.89-1.08,1.38
			c-0.25,0.48-0.36,0.95-0.36,1.4c0.01,0.45,0.16,0.85,0.46,1.2c0.31,0.36,0.72,0.55,1.2,0.56c0.49,0.01,1.01-0.12,1.56-0.39
			s1.08-0.64,1.58-1.11c0.49-0.46,0.86-0.93,1.09-1.41c0.23-0.47,0.32-0.93,0.28-1.36c-0.05-0.43-0.24-0.81-0.57-1.15
			C174.38,205.67,173.97,205.5,173.48,205.51z"/>
		<path class="st3" d="M169.64,205.62c0.42-0.16,0.83-0.43,1.22-0.81c0.4-0.39,0.7-0.8,0.87-1.24c0.17-0.43,0.23-0.85,0.17-1.26
			c-0.06-0.4-0.25-0.75-0.55-1.04c-0.4-0.39-0.89-0.54-1.48-0.46c-0.59,0.08-1.17,0.41-1.76,0.98c-0.4,0.38-0.68,0.78-0.85,1.21
			c-0.17,0.43-0.23,0.84-0.17,1.24c0.05,0.4,0.22,0.75,0.49,1.06c0.23,0.26,0.53,0.41,0.89,0.47
			C168.83,205.84,169.22,205.78,169.64,205.62z"/>
		<path class="st3" d="M207,159.34v-28.25c0,0-0.22,0.3-0.27,0.37c-1.68,2.39-7.99,11.14-17.09,20.71
			c-23.8,25.04-47.74,45.29-72.84,61.25c-8.52,5.43-17.39,10.41-25.56,14.7l-0.02,0.01c9.22,6.02,20.83,12.2,35.72,18.3
			c38.64-15.82,55.17-32.2,65.25-44.76c12.24-15.25,14.81-31.05,14.81-41.63V159.34z"/>
	</g>
	<g>
		<path class="st2" d="M173.48,205.51c-0.49,0-0.98,0.13-1.49,0.38c-0.51,0.25-0.99,0.58-1.44,1c-0.47,0.44-0.83,0.89-1.08,1.38
			c-0.25,0.48-0.36,0.95-0.36,1.4c0.01,0.45,0.16,0.85,0.46,1.2c0.31,0.36,0.72,0.55,1.2,0.56c0.49,0.01,1.01-0.12,1.56-0.39
			s1.08-0.64,1.58-1.11c0.49-0.46,0.86-0.93,1.09-1.41c0.23-0.47,0.32-0.93,0.28-1.36c-0.05-0.43-0.24-0.81-0.57-1.15
			C174.38,205.67,173.97,205.5,173.48,205.51z"/>
		<path class="st2" d="M169.64,205.62c0.42-0.16,0.83-0.43,1.22-0.81c0.4-0.39,0.7-0.8,0.87-1.24c0.17-0.43,0.23-0.85,0.17-1.26
			c-0.06-0.4-0.25-0.75-0.55-1.04c-0.4-0.39-0.89-0.54-1.48-0.46c-0.59,0.08-1.17,0.41-1.76,0.98c-0.4,0.38-0.68,0.78-0.85,1.21
			c-0.17,0.43-0.23,0.84-0.17,1.24c0.05,0.4,0.22,0.75,0.49,1.06c0.23,0.26,0.53,0.41,0.89,0.47
			C168.83,205.84,169.22,205.78,169.64,205.62z"/>
		<path class="st2" d="M207,159.34v-28.25c0,0-0.22,0.3-0.27,0.37c-1.68,2.39-7.99,11.14-17.09,20.71
			c-23.8,25.04-47.74,45.29-72.84,61.25c-8.52,5.43-17.39,10.41-25.56,14.7l-0.02,0.01c9.22,6.02,20.83,12.2,35.72,18.3
			c38.64-15.82,55.17-32.2,65.25-44.76c12.24-15.25,14.81-31.05,14.81-41.63V159.34z M153.7,225.8c-0.73-3.52-1.14-5.27-2.03-8.73
			c-0.09-0.39-0.16-0.73-0.22-1.04c-0.06-0.3-0.11-0.6-0.14-0.89c-0.12,0.32-0.33,0.7-0.63,1.12s-0.64,0.83-1.02,1.23
			s-0.76,0.74-1.15,1.02c-0.26-0.51-0.4-0.77-0.66-1.29c0.42-0.32,0.84-0.72,1.26-1.19s0.8-0.95,1.12-1.44
			c0.33-0.49,0.55-0.9,0.67-1.23c0.5-0.29,0.74-0.43,1.23-0.73c1.45,4.84,2.1,7.29,3.21,12.26
			C154.69,225.27,154.36,225.45,153.7,225.8z M165.72,217.67c-0.46,0.9-1.21,1.71-2.23,2.42c-0.77,0.53-1.52,0.86-2.24,1
			s-1.39,0.1-2.01-0.09s-1.17-0.53-1.66-1c0.54-0.57,0.81-0.85,1.34-1.43c0.28,0.29,0.61,0.53,1,0.72s0.84,0.26,1.33,0.21
			c0.49-0.05,1.01-0.26,1.56-0.63c0.68-0.47,1.19-1.01,1.51-1.61c0.32-0.6,0.49-1.23,0.52-1.89c0.02-0.66-0.07-1.32-0.29-1.98
			c-0.22-0.66-0.52-1.29-0.9-1.91c0.15,0.45,0.16,0.92,0.04,1.4c-0.12,0.48-0.34,0.94-0.66,1.37c-0.31,0.43-0.7,0.81-1.14,1.12
			c-0.77,0.55-1.53,0.88-2.27,1c-0.73,0.12-1.4,0.05-1.99-0.21c-0.59-0.26-1.07-0.68-1.43-1.25c-0.42-0.67-0.64-1.38-0.65-2.14
			s0.17-1.49,0.55-2.21c0.37-0.71,0.94-1.34,1.7-1.88c0.86-0.62,1.67-0.98,2.44-1.07c0.78-0.1,1.51,0.03,2.2,0.38
			s1.33,0.89,1.92,1.62c0.61,0.76,1.1,1.59,1.47,2.49c0.37,0.9,0.56,1.83,0.57,2.78C166.4,215.84,166.18,216.77,165.72,217.67z
			 M176.44,208.77c-0.37,0.8-0.93,1.56-1.7,2.27c-0.57,0.53-1.17,0.97-1.78,1.31c-0.62,0.34-1.23,0.57-1.82,0.69
			c-0.59,0.12-1.14,0.1-1.64-0.03c-0.5-0.14-0.92-0.42-1.27-0.84c-0.43-0.51-0.65-1.07-0.69-1.66c-0.03-0.59,0.09-1.2,0.36-1.83
			c0.21-0.49,0.53-0.97,0.91-1.46c-0.22,0.05-0.44,0.09-0.65,0.09c-0.36,0-0.71-0.07-1.03-0.21c-0.32-0.14-0.59-0.34-0.82-0.6
			c-0.47-0.54-0.73-1.14-0.8-1.8c-0.06-0.66,0.05-1.32,0.33-1.99s0.73-1.29,1.35-1.88c0.58-0.55,1.17-0.97,1.8-1.26
			s1.24-0.42,1.83-0.39s1.13,0.26,1.59,0.7c0.6,0.57,0.92,1.28,0.93,2.14c0.01,0.73-0.21,1.45-0.64,2.16
			c0.31-0.11,0.62-0.2,0.91-0.25c0.44-0.07,0.85-0.06,1.24,0.04c0.39,0.1,0.74,0.29,1.05,0.59c0.55,0.53,0.87,1.16,0.95,1.9
			C176.95,207.21,176.8,207.98,176.44,208.77z M179.77,205.75c-0.29-0.5-0.44-0.75-0.74-1.25c0.32-1.41,0.59-2.73,0.83-3.97
			s0.37-2.37,0.41-3.38c0.04-1.01-0.05-1.89-0.25-2.62s-0.6-1.31-1.16-1.73c-0.53-0.4-1.07-0.51-1.62-0.33
			c-0.55,0.18-1.03,0.53-1.46,1.07c-0.6,0.75-0.89,1.5-0.88,2.28s0.23,1.53,0.67,2.23c-0.64,0.15-0.96,0.22-1.59,0.35
			c-0.29-0.56-0.47-1.17-0.53-1.83c-0.07-0.66,0-1.32,0.21-1.99c0.2-0.68,0.57-1.33,1.08-1.98c0.5-0.63,1.03-1.1,1.6-1.42
			c0.57-0.32,1.15-0.49,1.73-0.49s1.13,0.18,1.64,0.55c0.55,0.4,0.97,0.91,1.26,1.54c0.29,0.63,0.48,1.34,0.56,2.13
			c0.08,0.79,0.09,1.63,0.02,2.52c-0.07,0.89-0.18,1.78-0.34,2.67s-0.31,1.75-0.47,2.57c0.01,0,0.01,0.01,0.01,0.01
			c0.1-0.14,0.27-0.34,0.49-0.63c0.23-0.28,0.39-0.48,0.48-0.6c1.6-1.89,2.36-2.87,3.84-4.87c0.35,0.46,0.52,0.7,0.87,1.16
			C183.93,201.1,182.6,202.7,179.77,205.75z"/>
		<path class="st2" d="M161.18,209.28c-0.41-0.15-0.83-0.17-1.28-0.07c-0.44,0.1-0.89,0.31-1.35,0.64c-0.5,0.36-0.88,0.76-1.12,1.2
			c-0.24,0.44-0.36,0.89-0.34,1.35s0.17,0.91,0.46,1.35c0.24,0.36,0.56,0.64,0.96,0.83c0.4,0.19,0.85,0.26,1.35,0.19
			c0.5-0.07,1.02-0.29,1.56-0.67c0.56-0.4,0.94-0.84,1.16-1.32c0.22-0.48,0.29-0.95,0.22-1.42c-0.07-0.47-0.24-0.88-0.52-1.25
			C161.96,209.71,161.59,209.43,161.18,209.28z"/>
	</g>
</g>
</svg>
